<svg width="24" height="24" viewBox="0 0 24 24" fill="none" xmlns="http://www.w3.org/2000/svg">
<mask id="mask0_292_34910" style="mask-type:luminance" maskUnits="userSpaceOnUse" x="0" y="0" width="24" height="24">
<path d="M0 0H24V24H0V0Z" fill="white"/>
</mask>
<g mask="url(#mask0_292_34910)">
<path fill-rule="evenodd" clip-rule="evenodd" d="M0 0V24H24V0H0Z" fill="#2E42A5"/>
<mask id="mask1_292_34910" style="mask-type:luminance" maskUnits="userSpaceOnUse" x="0" y="0" width="24" height="24">
<path fill-rule="evenodd" clip-rule="evenodd" d="M0 0V24H24V0H0Z" fill="white"/>
</mask>
<g mask="url(#mask1_292_34910)">
<mask id="mask2_292_34910" style="mask-type:luminance" maskUnits="userSpaceOnUse" x="0" y="0" width="24" height="24">
<path d="M0 0H24V24H0V0Z" fill="white"/>
</mask>
<g mask="url(#mask2_292_34910)">
<path d="M-2.67242 22.2848L2.60884 25.2628L24.1198 3.23725L26.9055 -1.18823L21.258 -2.18359L12.4842 7.30788L5.42217 13.7029L-2.67242 22.2848Z" fill="white"/>
<path d="M-1.94922 24.3711L0.741341 26.0993L25.9054 -1.59961H22.1275L-1.94922 24.3711Z" fill="#F50100"/>
<path d="M26.6725 22.2848L21.3912 25.2628L-0.119707 3.23725L-2.90546 -1.18823L2.7421 -2.18359L11.5159 7.30788L18.5779 13.7029L26.6725 22.2848Z" fill="white"/>
<path d="M26.4922 23.7815L23.8017 25.5097L13.0866 13.6504L9.90972 12.3253L-3.17358 -1.17383H0.604276L13.6803 12.0049L17.1535 13.5938L26.4922 23.7815Z" fill="#F50100"/>
<path fill-rule="evenodd" clip-rule="evenodd" d="M14.8334 -2H9.1668V8H-1.47925V16H9.1668V26H14.8334V16H25.5208V8H14.8334V-2Z" fill="#F50100"/>
<mask id="mask3_292_34910" style="mask-type:luminance" maskUnits="userSpaceOnUse" x="-2" y="-2" width="28" height="28">
<path fill-rule="evenodd" clip-rule="evenodd" d="M14.8334 -2H9.1668V8H-1.47925V16H9.1668V26H14.8334V16H25.5208V8H14.8334V-2Z" fill="white"/>
</mask>
<g mask="url(#mask3_292_34910)">
<path d="M9.1668 -2V-4H7.6668V-2H9.1668ZM14.8334 -2H16.3334V-4H14.8334V-2ZM9.1668 8V10H10.6668V8H9.1668ZM-1.47925 8V6H-2.97925V8H-1.47925ZM-1.47925 16H-2.97925V18H-1.47925V16ZM9.1668 16H10.6668V14H9.1668V16ZM9.1668 26H7.6668V28H9.1668V26ZM14.8334 26V28H16.3334V26H14.8334ZM14.8334 16V14H13.3334V16H14.8334ZM25.5208 16V18H27.0208V16H25.5208ZM25.5208 8H27.0208V6H25.5208V8ZM14.8334 8H13.3334V10H14.8334V8ZM9.1668 -2.38419e-07H14.8334V-4H9.1668V-2.38419e-07ZM10.6668 8V-2H7.6668V8H10.6668ZM-1.47925 10H9.1668V6H-1.47925V10ZM0.0207486 16V8H-2.97925V16H0.0207486ZM9.1668 14H-1.47925V18H9.1668V14ZM10.6668 26V16H7.6668V26H10.6668ZM14.8334 24H9.1668V28H14.8334V24ZM13.3334 16V26H16.3334V16H13.3334ZM25.5208 14H14.8334V18H25.5208V14ZM24.0208 8V16H27.0208V8H24.0208ZM14.8334 10H25.5208V6H14.8334V10ZM13.3334 -2V8H16.3334V-2H13.3334Z" fill="white"/>
</g>
</g>
</g>
</g>
</svg>
