<svg width="24" height="24" viewBox="0 0 24 24" fill="none" xmlns="http://www.w3.org/2000/svg">
<mask id="mask0_638_7208" style="mask-type:luminance" maskUnits="userSpaceOnUse" x="0" y="0" width="24" height="24">
<path fill-rule="evenodd" clip-rule="evenodd" d="M0 0H24V24H0V0Z" fill="white"/>
</mask>
<g mask="url(#mask0_638_7208)">
<path fill-rule="evenodd" clip-rule="evenodd" d="M0 0V24H24V0H0Z" fill="#F7FCFF"/>
<mask id="mask1_638_7208" style="mask-type:luminance" maskUnits="userSpaceOnUse" x="0" y="0" width="24" height="24">
<path fill-rule="evenodd" clip-rule="evenodd" d="M0 0V24H24V0H0Z" fill="white"/>
</mask>
<g mask="url(#mask1_638_7208)">
<path fill-rule="evenodd" clip-rule="evenodd" d="M0 0V24H24V0H0Z" fill="#3D58DB"/>
<path fill-rule="evenodd" clip-rule="evenodd" d="M11.2867 3.53754L11.1184 4.84655L12 4.22852L12.8817 4.84655L12.7133 3.53754L13.4266 2.51499H12.4408L12 1.22852L11.5592 2.51499H10.5734L11.2867 3.53754ZM11.2867 20.9064L11.1184 22.2155L12 21.5974L12.8817 22.2155L12.7133 20.9064L13.4266 19.8839H12.4408L12 18.5974L11.5592 19.8839H10.5734L11.2867 20.9064ZM4.25462 13.619L4.42301 12.31L3.70972 11.2875H4.69546L5.1363 10.001L5.57714 11.2875H6.56289L5.84959 12.31L6.01798 13.619L5.1363 13.001L4.25462 13.619ZM5.80147 16.4511L5.63309 17.7601L6.51477 17.1421L7.39645 17.7601L7.22806 16.4511L7.94137 15.4285H6.9556L6.51477 14.1421L6.07393 15.4285H5.08818L5.80147 16.4511ZM17.4937 17.1421L16.612 17.7601L16.7804 16.4511L16.0671 15.4285H17.0529L17.4937 14.1421L17.9345 15.4285H18.9203L18.207 16.4511L18.3754 17.7601L17.4937 17.1421ZM5.80147 8.06114L5.63309 9.37015L6.51477 8.75212L7.39645 9.37015L7.22806 8.06114L7.94137 7.03859H6.9556L6.51477 5.75212L6.07393 7.03859H5.08818L5.80147 8.06114ZM17.4937 8.75212L16.612 9.37015L16.7804 8.06114L16.0671 7.03859H17.0529L17.4937 5.75212L17.9345 7.03859H18.9203L18.207 8.06114L18.3754 9.37015L17.4937 8.75212ZM7.99215 19.7829L7.82377 21.0919L8.7054 20.4739L9.5871 21.0919L9.41872 19.7829L10.132 18.7604H9.14625L8.7054 17.4739L8.26462 18.7604H7.27885L7.99215 19.7829ZM14.4929 21.0919L14.6613 19.7829L13.948 18.7604H14.9338L15.3746 17.4739L15.8154 18.7604H16.8012L16.0879 19.7829L16.2562 21.0919L15.3746 20.4739L14.4929 21.0919ZM7.82377 5.98512L8.7054 5.36709L9.5871 5.98512L9.41872 4.6761L10.132 3.65356H9.14625L8.7054 2.36709L8.26462 3.65356H7.27885L7.99215 4.6761L7.82377 5.98512ZM14.4929 5.98512L14.6613 4.6761L13.948 3.65356H14.9338L15.3746 2.36709L15.8154 3.65356H16.8012L16.0879 4.6761L16.2562 5.98512L15.3746 5.36709L14.4929 5.98512ZM18.0931 12.1918L17.9247 13.5008L18.8064 12.8828L19.6881 13.5008L19.5197 12.1918L20.233 11.1692H19.2472L18.8064 9.88273L18.3655 11.1692H17.3798L18.0931 12.1918Z" fill="#FFD018"/>
</g>
</g>
</svg>
