<svg width="24" height="24" viewBox="0 0 24 24" fill="none" xmlns="http://www.w3.org/2000/svg">
<mask id="mask0_292_34950" style="mask-type:luminance" maskUnits="userSpaceOnUse" x="0" y="0" width="24" height="24">
<path d="M0 0H24V24H0V0Z" fill="white"/>
</mask>
<g mask="url(#mask0_292_34950)">
<path fill-rule="evenodd" clip-rule="evenodd" d="M0 0H24V24H0V0Z" fill="#F7FCFF"/>
<path fill-rule="evenodd" clip-rule="evenodd" d="M0 14.666V16.666H24V14.666H0Z" fill="#E31D1C"/>
<path fill-rule="evenodd" clip-rule="evenodd" d="M0 18.334V20.334H24V18.334H0Z" fill="#E31D1C"/>
<path fill-rule="evenodd" clip-rule="evenodd" d="M0 7.33398V9.33398H24V7.33398H0Z" fill="#E31D1C"/>
<path fill-rule="evenodd" clip-rule="evenodd" d="M0 22V24H24V22H0Z" fill="#E31D1C"/>
<path fill-rule="evenodd" clip-rule="evenodd" d="M0 11V13H24V11H0Z" fill="#E31D1C"/>
<path fill-rule="evenodd" clip-rule="evenodd" d="M0 0V2H24V0H0Z" fill="#E31D1C"/>
<path fill-rule="evenodd" clip-rule="evenodd" d="M0 3.66602V5.66602H24V3.66602H0Z" fill="#E31D1C"/>
<path d="M0 0H15V13H0V0Z" fill="#2E42A5"/>
<path fill-rule="evenodd" clip-rule="evenodd" d="M1.29142 2.93823L0.747004 3.44711L0.930801 2.5415L0.447266 1.96759H1.07883L1.29065 1.22852L1.53903 1.96759H2.07742L1.65439 2.5415L1.81816 3.44711L1.29142 2.93823ZM4.29142 2.93823L3.74701 3.44711L3.9308 2.5415L3.44727 1.96759H4.07883L4.29065 1.22852L4.53903 1.96759H5.07742L4.65439 2.5415L4.81816 3.44711L4.29142 2.93823ZM6.74701 3.44711L7.29142 2.93823L7.81816 3.44711L7.65436 2.5415L8.07744 1.96759H7.53901L7.29065 1.22852L7.07883 1.96759H6.44727L6.9308 2.5415L6.74701 3.44711ZM10.2914 2.93823L9.74701 3.44711L9.93084 2.5415L9.44724 1.96759H10.0788L10.2907 1.22852L10.539 1.96759H11.0774L10.6544 2.5415L10.8182 3.44711L10.2914 2.93823ZM0.747004 7.44711L1.29142 6.93823L1.81816 7.44711L1.65439 6.5415L2.07742 5.96759H1.53903L1.29065 5.22852L1.07883 5.96759H0.447266L0.930801 6.5415L0.747004 7.44711ZM4.29142 6.93823L3.74701 7.44711L3.9308 6.5415L3.44727 5.96759H4.07883L4.29065 5.22852L4.53903 5.96759H5.07742L4.65439 6.5415L4.81816 7.44711L4.29142 6.93823ZM6.74701 7.44711L7.29142 6.93823L7.81816 7.44711L7.65436 6.5415L8.07744 5.96759H7.53901L7.29065 5.22852L7.07883 5.96759H6.44727L6.9308 6.5415L6.74701 7.44711ZM10.2914 6.93823L9.74701 7.44711L9.93084 6.5415L9.44724 5.96759H10.0788L10.2907 5.22852L10.539 5.96759H11.0774L10.6544 6.5415L10.8182 7.44711L10.2914 6.93823ZM0.747004 11.4471L1.29142 10.9382L1.81816 11.4471L1.65439 10.5415L2.07742 9.96759H1.53903L1.29065 9.22852L1.07883 9.96759H0.447266L0.930801 10.5415L0.747004 11.4471ZM4.29142 10.9382L3.74701 11.4471L3.9308 10.5415L3.44727 9.96759H4.07883L4.29065 9.22852L4.53903 9.96759H5.07742L4.65439 10.5415L4.81816 11.4471L4.29142 10.9382ZM6.74701 11.4471L7.29142 10.9382L7.81816 11.4471L7.65436 10.5415L8.07744 9.96759H7.53901L7.29065 9.22852L7.07883 9.96759H6.44727L6.9308 10.5415L6.74701 11.4471ZM10.2914 10.9382L9.74701 11.4471L9.93084 10.5415L9.44724 9.96759H10.0788L10.2907 9.22852L10.539 9.96759H11.0774L10.6544 10.5415L10.8182 11.4471L10.2914 10.9382ZM12.747 3.44711L13.2914 2.93823L13.8182 3.44711L13.6544 2.5415L14.0774 1.96759H13.539L13.2907 1.22852L13.0788 1.96759H12.4472L12.9308 2.5415L12.747 3.44711ZM13.2914 6.93823L12.747 7.44711L12.9308 6.5415L12.4472 5.96759H13.0788L13.2907 5.22852L13.539 5.96759H14.0774L13.6544 6.5415L13.8182 7.44711L13.2914 6.93823ZM12.747 11.4471L13.2914 10.9382L13.8182 11.4471L13.6544 10.5415L14.0774 9.96759H13.539L13.2907 9.22852L13.0788 9.96759H12.4472L12.9308 10.5415L12.747 11.4471ZM2.79142 4.93823L2.24701 5.44711L2.4308 4.5415L1.94727 3.96759H2.57883L2.79065 3.22852L3.03903 3.96759H3.57742L3.15439 4.5415L3.31816 5.44711L2.79142 4.93823ZM5.24701 5.44711L5.79142 4.93823L6.31816 5.44711L6.15439 4.5415L6.57742 3.96759H6.03903L5.79065 3.22852L5.57883 3.96759H4.94727L5.4308 4.5415L5.24701 5.44711ZM8.79144 4.93823L8.24701 5.44711L8.43084 4.5415L7.94724 3.96759H8.57881L8.79069 3.22852L9.03901 3.96759H9.57744L9.15436 4.5415L9.31816 5.44711L8.79144 4.93823ZM2.24701 9.44711L2.79142 8.93823L3.31816 9.44711L3.15439 8.5415L3.57742 7.96759H3.03903L2.79065 7.22852L2.57883 7.96759H1.94727L2.4308 8.5415L2.24701 9.44711ZM5.79142 8.93823L5.24701 9.44711L5.4308 8.5415L4.94727 7.96759H5.57883L5.79065 7.22852L6.03903 7.96759H6.57742L6.15439 8.5415L6.31816 9.44711L5.79142 8.93823ZM8.24701 9.44711L8.79144 8.93823L9.31816 9.44711L9.15436 8.5415L9.57744 7.96759H9.03901L8.79069 7.22852L8.57881 7.96759H7.94724L8.43084 8.5415L8.24701 9.44711ZM11.7914 4.93823L11.247 5.44711L11.4308 4.5415L10.9472 3.96759H11.5788L11.7907 3.22852L12.039 3.96759H12.5774L12.1544 4.5415L12.3182 5.44711L11.7914 4.93823ZM11.247 9.44711L11.7914 8.93823L12.3182 9.44711L12.1544 8.5415L12.5774 7.96759H12.039L11.7907 7.22852L11.5788 7.96759H10.9472L11.4308 8.5415L11.247 9.44711Z" fill="#F7FCFF"/>
</g>
</svg>
