<svg width="25" height="25" viewBox="0 0 25 25" fill="none" xmlns="http://www.w3.org/2000/svg">
<path d="M17.2441 20.5099H7.24414C4.24414 20.5099 2.24414 19.0099 2.24414 15.5099V8.50989C2.24414 5.00989 4.24414 3.50989 7.24414 3.50989H17.2441C20.2441 3.50989 22.2441 5.00989 22.2441 8.50989V15.5099C22.2441 19.0099 20.2441 20.5099 17.2441 20.5099Z" stroke="#091925" stroke-width="1.5" stroke-miterlimit="10" stroke-linecap="round" stroke-linejoin="round"/>
<path d="M12.2441 15.0099C13.901 15.0099 15.2441 13.6667 15.2441 12.0099C15.2441 10.353 13.901 9.00989 12.2441 9.00989C10.5873 9.00989 9.24414 10.353 9.24414 12.0099C9.24414 13.6667 10.5873 15.0099 12.2441 15.0099Z" stroke="#091925" stroke-width="1.5" stroke-miterlimit="10" stroke-linecap="round" stroke-linejoin="round"/>
<path d="M5.74414 9.50989V14.5099" stroke="#091925" stroke-width="1.5" stroke-miterlimit="10" stroke-linecap="round" stroke-linejoin="round"/>
<path d="M18.7441 9.50989V14.5099" stroke="#091925" stroke-width="1.5" stroke-miterlimit="10" stroke-linecap="round" stroke-linejoin="round"/>
</svg>
