<svg width="17" height="17" viewBox="0 0 17 17" fill="none" xmlns="http://www.w3.org/2000/svg">
<path d="M10.1599 8.00409L16.4599 1.71409C16.6482 1.52579 16.754 1.27039 16.754 1.00409C16.754 0.73779 16.6482 0.482395 16.4599 0.294092C16.2716 0.105788 16.0162 0 15.7499 0C15.4836 0 15.2282 0.105788 15.0399 0.294092L8.74994 6.59409L2.45994 0.294092C2.27164 0.105788 2.01624 2.36434e-07 1.74994 2.38419e-07C1.48364 2.40403e-07 1.22824 0.105788 1.03994 0.294092C0.851635 0.482395 0.745847 0.73779 0.745847 1.00409C0.745847 1.27039 0.851635 1.52579 1.03994 1.71409L7.33994 8.00409L1.03994 14.2941C0.946211 14.3871 0.871816 14.4977 0.821048 14.6195C0.770279 14.7414 0.744141 14.8721 0.744141 15.0041C0.744141 15.1361 0.770279 15.2668 0.821048 15.3887C0.871816 15.5105 0.946211 15.6211 1.03994 15.7141C1.1329 15.8078 1.2435 15.8822 1.36536 15.933C1.48722 15.9838 1.61793 16.0099 1.74994 16.0099C1.88195 16.0099 2.01266 15.9838 2.13452 15.933C2.25638 15.8822 2.36698 15.8078 2.45994 15.7141L8.74994 9.41409L15.0399 15.7141C15.1329 15.8078 15.2435 15.8822 15.3654 15.933C15.4872 15.9838 15.6179 16.0099 15.7499 16.0099C15.882 16.0099 16.0127 15.9838 16.1345 15.933C16.2564 15.8822 16.367 15.8078 16.4599 15.7141C16.5537 15.6211 16.6281 15.5105 16.6788 15.3887C16.7296 15.2668 16.7557 15.1361 16.7557 15.0041C16.7557 14.8721 16.7296 14.7414 16.6788 14.6195C16.6281 14.4977 16.5537 14.3871 16.4599 14.2941L10.1599 8.00409Z" fill="#091925"/>
</svg>
