<svg width="25" height="25" viewBox="0 0 25 25" fill="none" xmlns="http://www.w3.org/2000/svg">
<path d="M18.7441 12.6599V16.3599C18.7441 19.4799 15.8341 22.0099 12.2441 22.0099C8.65414 22.0099 5.74414 19.4799 5.74414 16.3599V12.6599C5.74414 15.7799 8.65414 18.0099 12.2441 18.0099C15.8341 18.0099 18.7441 15.7799 18.7441 12.6599Z" stroke="#091925" stroke-width="1.5" stroke-linecap="round" stroke-linejoin="round"/>
<path d="M18.7441 7.65989C18.7441 8.56989 18.4941 9.40989 18.0541 10.1299C16.9841 11.8899 14.7841 13.0099 12.2441 13.0099C9.70414 13.0099 7.50414 11.8899 6.43414 10.1299C5.99414 9.40989 5.74414 8.56989 5.74414 7.65989C5.74414 6.09989 6.47413 4.68989 7.64413 3.66989C8.82413 2.63989 10.4441 2.00989 12.2441 2.00989C14.0441 2.00989 15.6641 2.63989 16.8441 3.65989C18.0141 4.68989 18.7441 6.09989 18.7441 7.65989Z" stroke="#091925" stroke-width="1.5" stroke-linecap="round" stroke-linejoin="round"/>
<path d="M18.7441 7.65989V12.6599C18.7441 15.7799 15.8341 18.0099 12.2441 18.0099C8.65414 18.0099 5.74414 15.7799 5.74414 12.6599V7.65989C5.74414 4.53989 8.65414 2.00989 12.2441 2.00989C14.0441 2.00989 15.6641 2.63989 16.8441 3.65989C18.0141 4.68989 18.7441 6.09989 18.7441 7.65989Z" stroke="#091925" stroke-width="1.5" stroke-linecap="round" stroke-linejoin="round"/>
</svg>
