<svg width="25" height="25" viewBox="0 0 25 25" fill="none" xmlns="http://www.w3.org/2000/svg">
<path d="M18.5 7.00989C18.5 3.76989 15.741 1.00989 12.5 1.00989C9.257 1.00989 6.5 3.76989 6.5 7.00989V9.73289C5.21101 11.1885 4.49957 13.0656 4.5 15.0099C4.5 19.4259 8.084 23.0099 12.501 23.0099C16.918 23.0099 20.5 19.4259 20.5 15.0099C20.5006 13.0653 19.7891 11.1878 18.5 9.73189V7.00989ZM8.5 7.00989C8.5 4.87889 10.369 3.00989 12.5 3.00989C14.631 3.00989 16.5 4.87889 16.5 7.00989V8.08889C15.2853 7.38236 13.9051 7.01025 12.4999 7.01042C11.0946 7.0106 9.71453 7.38306 8.5 8.08989V7.00989ZM11 19.4239L7.293 15.7169L8.707 14.3029L11 16.5959L16.293 11.3029L17.707 12.7169L11 19.4239Z" fill="#2C7CB9"/>
</svg>
