<svg width="190" height="197" viewBox="0 0 190 197" fill="none" xmlns="http://www.w3.org/2000/svg">
<rect width="188.028" height="196.057" transform="translate(0.98584)" fill="white"/>
<path d="M188.736 134.563C188.251 129.268 187.055 124.064 185.18 119.089C184.226 116.541 183.09 114.066 181.781 111.681C180.423 109.25 178.882 106.925 177.172 104.726C175.425 102.49 173.498 100.401 171.41 98.4793C169.386 96.6475 167.241 94.9536 164.99 93.4092C162.85 91.9606 160.694 90.6684 158.571 89.4996C156.447 88.3308 154.365 87.3185 152.315 86.3719C148.2 84.4871 144.34 82.9233 140.735 81.4335C136.619 79.7216 132.759 78.1413 129.607 76.4046C126.935 75.0616 124.484 73.3185 122.339 71.2357C121.533 70.4212 120.828 69.5119 120.24 68.5278C119.618 67.4619 119.102 66.3371 118.701 65.1697C118.166 63.5798 117.732 61.9579 117.401 60.3136C117.006 58.4534 116.652 56.3711 116.257 54.0665C115.862 51.7619 115.434 49.3092 114.882 46.6589C114.276 43.781 113.498 40.9418 112.553 38.1566C110.451 32.14 107.311 26.5381 103.277 21.6047C95.4219 11.9728 84.7315 5.06095 72.7245 1.85103C66.6241 0.212768 60.284 -0.344361 53.9914 0.204891C47.7518 0.791086 41.6598 2.44774 35.9827 5.10216C24.8861 10.2862 15.6987 18.8257 9.71859 29.5144C6.68048 34.9431 4.61894 40.863 3.62786 47.0046C2.67889 53.0948 2.77915 59.3025 3.9242 65.359C3.9242 65.4907 3.9818 65.6142 4.00649 65.7458C3.74311 66.2726 3.48793 66.8076 3.26571 67.392C2.63506 68.9306 2.13398 70.5191 1.76771 72.1411C1.57018 73.1946 1.38089 74.2564 1.22451 75.3264L1.09284 76.9231L0.98584 78.4376C0.98584 79.4417 0.985838 80.4458 1.03522 81.45C1.08461 82.4541 1.21628 83.4171 1.33151 84.4048C1.88236 88.1357 2.99224 91.7622 4.62379 95.1623C5.75264 97.5176 7.11477 99.7538 8.68975 101.837C10.3908 104.122 12.3214 106.226 14.4512 108.117C14.9862 108.628 15.5541 109.105 16.1467 109.574C16.7394 110.043 17.3073 110.529 17.941 110.965C18.5748 111.401 19.2003 111.871 19.8258 112.282L21.6613 113.443C24.0948 114.895 26.6216 116.184 29.2253 117.303C33.85 119.236 38.5954 120.866 43.4315 122.184C47.695 123.385 51.4152 124.389 54.2466 125.295C57.5226 126.296 60.738 127.486 63.8765 128.859C66.4648 129.971 68.8771 131.454 71.0372 133.262C71.9294 134.064 72.7374 134.955 73.4488 135.921C74.2404 137.05 74.9291 138.248 75.5065 139.501C76.1684 140.989 76.7509 142.511 77.2514 144.061C77.7864 145.707 78.272 147.452 78.7493 149.296L79.5724 152.275C79.8687 153.32 80.1321 154.333 80.4696 155.427C81.0869 157.567 81.8523 159.847 82.7659 162.168L83.4985 163.921C83.7618 164.522 84.0664 165.14 84.3215 165.74C84.8812 166.967 85.5726 168.119 86.2311 169.288C87.6006 171.582 89.1529 173.762 90.8731 175.807C92.5658 177.823 94.4034 179.712 96.3712 181.461C98.321 183.171 100.386 184.744 102.552 186.169C106.822 188.988 111.443 191.235 116.298 192.852C121.135 194.491 126.16 195.512 131.253 195.889C136.456 196.287 141.69 195.975 146.809 194.959C152.126 193.899 157.248 192.025 161.995 189.404C166.841 186.678 171.206 183.174 174.917 179.033C178.517 174.952 181.485 170.355 183.723 165.395C185.9 160.555 187.417 155.444 188.234 150.201C189.064 145.031 189.233 139.776 188.736 134.563ZM70.0824 60.8897L68.9219 60.791L67.8354 60.6757L65.6955 60.437C64.395 60.2313 63.0205 60.0667 61.9011 59.8033C60.7817 59.5399 59.72 59.2518 58.6665 58.9802C57.8216 58.6856 56.9968 58.3365 56.1972 57.9349C55.5705 57.6496 54.9725 57.3051 54.4112 56.9061C55.7857 56.6427 56.9627 56.083 58.0245 55.869C58.7227 55.6822 59.4319 55.5392 60.148 55.441C60.8312 55.334 61.5143 55.1859 62.3703 55.0048C64.4611 54.509 66.6107 54.3068 68.7573 54.4039C69.6319 54.4498 70.5001 54.5794 71.35 54.7908L71.1524 56.9061C71.0043 58.3465 70.8808 59.688 70.7573 60.9309L70.0824 60.8897ZM141.829 135.707C142.833 135.962 143.813 136.176 144.776 136.357C144.62 136.653 144.438 136.933 144.29 137.229L143.903 137.764C143.793 137.947 143.66 138.116 143.508 138.266C143.037 138.873 142.483 139.41 141.862 139.863C141.725 139.955 141.593 140.054 141.467 140.159C141.309 140.234 141.155 140.316 141.006 140.406C140.85 140.507 140.681 140.587 140.504 140.645C140.338 140.735 140.164 140.812 139.986 140.876C139.2 141.152 138.39 141.35 137.566 141.468C136.714 141.546 135.858 141.546 135.006 141.468C133.621 141.326 132.298 140.821 131.171 140.003C131.11 139.969 131.052 139.931 130.998 139.888C130.998 139.838 130.915 139.797 130.874 139.748C130.833 139.699 130.693 139.624 130.578 139.476C130.32 139.193 130.081 138.893 129.862 138.579C129.565 138.192 129.29 137.788 129.039 137.369C128.907 137.139 128.775 136.842 128.636 136.546L128.43 136.151L128.224 135.69L127.796 134.744L127.376 133.665C127.236 133.32 127.088 132.925 126.948 132.513L126.512 131.287C125.977 129.641 125.434 128.044 124.866 126.414C129.748 130.749 135.547 133.923 141.829 135.698V135.707ZM114.734 164.646C111.188 162.264 108.253 159.08 106.166 155.353C105.944 154.892 105.713 154.44 105.474 153.987L104.799 152.415C104.585 151.847 104.363 151.312 104.157 150.719C103.952 150.127 103.762 149.6 103.565 148.991C103.672 149.197 103.762 149.394 103.861 149.6C105.491 152.831 107.554 155.824 109.993 158.497C112.706 161.393 115.9 163.796 119.434 165.601C122.792 167.326 126.404 168.504 130.134 169.09C135.552 169.967 141.095 169.687 146.397 168.267C144.53 169.092 142.575 169.702 140.57 170.086C131.577 171.698 122.31 169.744 114.734 164.638V164.646Z" fill="#E8F1F8"/>
<path d="M1.26399 134.563C1.74869 129.268 2.94467 124.064 4.81966 119.089C5.77368 116.541 6.90971 114.066 8.21893 111.681C9.57703 109.25 11.1178 106.925 12.8281 104.726C14.5748 102.49 16.5018 100.401 18.5896 98.4793C20.6137 96.6475 22.7585 94.9536 25.0096 93.4092C27.1495 91.9606 29.306 90.6684 31.4295 89.4996C33.553 88.3308 35.6353 87.3185 37.6848 86.3719C41.8001 84.4871 45.6603 82.9233 49.2654 81.4335C53.3807 79.7216 57.2409 78.1413 60.3933 76.4046C63.0648 75.0616 65.5155 73.3185 67.6609 71.2357C68.4673 70.4212 69.1721 69.5119 69.7598 68.5278C70.3823 67.4619 70.8978 66.3371 71.2989 65.1697C71.8336 63.5798 72.2679 61.9579 72.5993 60.3136C72.9944 58.4534 73.3483 56.3711 73.7434 54.0665C74.1385 51.7619 74.5665 49.3092 75.1179 46.6589C75.7245 43.781 76.5023 40.9418 77.4472 38.1566C79.5491 32.14 82.6885 26.5381 86.7232 21.6047C94.5781 11.9728 105.268 5.06095 117.276 1.85103C123.376 0.212768 129.716 -0.344361 136.009 0.204891C142.248 0.791086 148.34 2.44774 154.017 5.10216C165.114 10.2862 174.301 18.8257 180.281 29.5144C183.32 34.9431 185.381 40.863 186.372 47.0046C187.321 53.0948 187.221 59.3025 186.076 65.359C186.076 65.4907 186.018 65.6142 185.994 65.7458C186.257 66.2726 186.512 66.8076 186.734 67.392C187.365 68.9306 187.866 70.5191 188.232 72.1411C188.43 73.1946 188.619 74.2564 188.775 75.3264L188.907 76.9231L189.014 78.4376C189.014 79.4417 189.014 80.4458 188.965 81.45C188.915 82.4541 188.784 83.4171 188.668 84.4048C188.118 88.1357 187.008 91.7622 185.376 95.1623C184.247 97.5176 182.885 99.7538 181.31 101.837C179.609 104.122 177.679 106.226 175.549 108.117C175.014 108.628 174.446 109.105 173.853 109.574C173.261 110.043 172.693 110.529 172.059 110.965C171.425 111.401 170.8 111.871 170.174 112.282L168.339 113.443C165.905 114.895 163.378 116.184 160.775 117.303C156.15 119.236 151.405 120.866 146.569 122.184C142.305 123.385 138.585 124.389 135.753 125.295C132.477 126.296 129.262 127.486 126.124 128.859C123.535 129.971 121.123 131.454 118.963 133.262C118.071 134.064 117.263 134.955 116.551 135.921C115.76 137.05 115.071 138.248 114.494 139.501C113.832 140.989 113.249 142.511 112.749 144.061C112.214 145.707 111.728 147.452 111.251 149.296L110.428 152.275C110.131 153.32 109.868 154.333 109.53 155.427C108.913 157.567 108.148 159.847 107.234 162.168L106.502 163.921C106.238 164.522 105.934 165.14 105.678 165.74C105.119 166.967 104.427 168.119 103.769 169.288C102.399 171.582 100.847 173.762 99.1269 175.807C97.4342 177.823 95.5966 179.712 93.6288 181.461C91.679 183.171 89.6136 184.744 87.4475 186.169C83.1778 188.988 78.5566 191.235 73.7023 192.852C68.8652 194.491 63.8403 195.512 58.7471 195.889C53.5436 196.287 48.3101 195.975 43.1911 194.959C37.8737 193.899 32.7516 192.025 28.0055 189.404C23.1591 186.678 18.7936 183.174 15.0833 179.033C11.4831 174.952 8.51459 170.355 6.2765 165.395C4.10043 160.555 2.58339 155.444 1.76605 150.201C0.936066 145.031 0.767365 139.776 1.26399 134.563ZM119.918 60.8897L121.078 60.791L122.165 60.6757L124.305 60.437C125.605 60.2313 126.98 60.0667 128.099 59.8033C129.218 59.5399 130.28 59.2518 131.334 58.9802C132.178 58.6856 133.003 58.3365 133.803 57.9349C134.429 57.6496 135.028 57.3051 135.589 56.9061C134.214 56.6427 133.037 56.083 131.976 55.869C131.277 55.6822 130.568 55.5392 129.852 55.441C129.169 55.334 128.486 55.1859 127.63 55.0048C125.539 54.509 123.389 54.3068 121.243 54.4039C120.368 54.4498 119.5 54.5794 118.65 54.7908L118.848 56.9061C118.996 58.3465 119.119 59.688 119.243 60.9309L119.918 60.8897ZM48.1707 135.707C47.1665 135.962 46.1871 136.176 45.2241 136.357C45.3805 136.653 45.5615 136.933 45.7097 137.229L46.0966 137.764C46.207 137.947 46.3397 138.116 46.4916 138.266C46.9631 138.873 47.5172 139.41 48.1378 139.863C48.2748 139.955 48.4066 140.054 48.5328 140.159C48.6907 140.234 48.8446 140.316 48.9937 140.406C49.1502 140.507 49.319 140.587 49.4958 140.645C49.6625 140.735 49.8358 140.812 50.0143 140.876C50.7995 141.152 51.6101 141.35 52.4342 141.468C53.2856 141.546 54.1425 141.546 54.9939 141.468C56.3791 141.326 57.7022 140.821 58.8294 140.003C58.8901 139.969 58.9479 139.931 59.0023 139.888C59.0023 139.838 59.0845 139.797 59.1257 139.748C59.1669 139.699 59.3068 139.624 59.422 139.476C59.6796 139.193 59.9188 138.893 60.1381 138.579C60.435 138.192 60.7098 137.788 60.9612 137.369C61.0929 137.139 61.2246 136.842 61.3645 136.546L61.5702 136.151L61.776 135.69L62.204 134.744L62.6237 133.665C62.7637 133.32 62.9118 132.925 63.0518 132.513L63.488 131.287C64.023 129.641 64.5662 128.044 65.1341 126.414C60.2525 130.749 54.4532 133.923 48.1707 135.698V135.707ZM75.2661 164.646C78.812 162.264 81.7472 159.08 83.8342 155.353C84.0565 154.892 84.2869 154.44 84.5256 153.987L85.2005 152.415C85.4145 151.847 85.6368 151.312 85.8425 150.719C86.0483 150.127 86.2376 149.6 86.4351 148.991C86.3281 149.197 86.2376 149.394 86.1388 149.6C84.5086 152.831 82.4457 155.824 80.007 158.497C77.2939 161.393 74.0998 163.796 70.5664 165.601C67.2082 167.326 63.5961 168.504 59.8665 169.09C54.4479 169.967 48.905 169.687 43.6026 168.267C45.4701 169.092 47.425 169.702 49.43 170.086C58.4229 171.698 67.69 169.744 75.2661 164.638V164.646Z" fill="#E8F1F8"/>
<path d="M110.281 136.874C107.919 136.865 105.62 136.104 103.719 134.702L96.9689 129.764C96.1313 129.147 95.1184 128.815 94.0783 128.815C93.0381 128.815 92.0252 129.147 91.1877 129.764L84.4377 134.702C82.6921 135.977 80.6139 136.717 78.4555 136.833C76.2971 136.948 74.1516 136.435 72.2798 135.354C70.4079 134.273 68.8903 132.672 67.9114 130.745C66.9325 128.818 66.5345 126.648 66.7658 124.499L67.672 116.186C67.7884 115.153 67.5704 114.11 67.0501 113.21C66.5298 112.31 65.7347 111.601 64.7814 111.186L57.1408 107.811C55.1584 106.942 53.4721 105.514 52.288 103.702C51.104 101.89 50.4734 99.7726 50.4734 97.608C50.4734 95.4434 51.104 93.3258 52.288 91.5138C53.4721 89.7018 55.1584 88.274 57.1408 87.4049L64.7814 84.0299C65.7347 83.6153 66.5298 82.9059 67.0501 82.0059C67.5704 81.106 67.7884 80.0629 67.672 79.0299L66.7658 70.7174C66.5345 68.5683 66.9325 66.3984 67.9114 64.4713C68.8903 62.5442 70.4079 60.9429 72.2798 59.8622C74.1516 58.7814 76.2971 58.2677 78.4555 58.3834C80.6139 58.4992 82.6921 59.2395 84.4377 60.5143L91.1877 65.4518C92.0252 66.0685 93.0381 66.4012 94.0783 66.4012C95.1184 66.4012 96.1313 66.0685 96.9689 65.4518L103.719 60.5143C104.921 59.6246 106.293 58.9908 107.749 58.6522C109.206 58.3136 110.716 58.2773 112.188 58.5455C113.691 58.8182 115.123 59.392 116.398 60.2325C117.674 61.073 118.766 62.1627 119.61 63.4361C119.843 63.7787 120.007 64.1643 120.09 64.5706C120.173 64.9769 120.175 65.3957 120.095 65.8026C120.014 66.2095 119.854 66.5964 119.623 66.9407C119.391 67.2849 119.094 67.5798 118.748 67.8079C118.401 68.036 118.013 68.1929 117.605 68.2695C117.198 68.346 116.779 68.3407 116.373 68.2537C115.968 68.1667 115.584 67.9999 115.243 67.763C114.903 67.526 114.613 67.2237 114.391 66.8736C114.014 66.3069 113.526 65.8224 112.957 65.4491C112.387 65.0759 111.748 64.8217 111.078 64.7018C110.433 64.5828 109.77 64.6006 109.132 64.754C108.494 64.9074 107.896 65.193 107.375 65.5924L100.625 70.5299C98.7148 71.9301 96.4078 72.685 94.0392 72.685C91.6706 72.685 89.3637 71.9301 87.4533 70.5299L80.7189 65.5924C79.9536 65.0113 79.034 64.6685 78.075 64.6069C77.1161 64.5452 76.1602 64.7675 75.3267 65.2459C74.4933 65.7243 73.8193 66.4376 73.3889 67.2967C72.9584 68.1559 72.7906 69.1228 72.9064 70.0768L73.8127 78.3736C74.0851 80.7213 73.6017 83.0947 72.4327 85.1488C71.2637 87.2029 69.4702 88.8306 67.3127 89.7955L59.6564 93.1705C58.7886 93.5557 58.0512 94.1844 57.5336 94.9804C57.016 95.7764 56.7406 96.7054 56.7406 97.6549C56.7406 98.6043 57.016 99.5334 57.5336 100.329C58.0512 101.125 58.7886 101.754 59.6564 102.139L67.3127 105.421C69.4819 106.372 71.2902 107.992 72.4737 110.044C73.6571 112.096 74.1536 114.473 73.8908 116.827L72.9845 125.124C72.8687 126.078 73.0365 127.045 73.467 127.904C73.8974 128.763 74.5715 129.476 75.4049 129.955C76.2383 130.433 77.1942 130.655 78.1532 130.594C79.1121 130.532 80.0317 130.189 80.797 129.608L87.5314 124.671C89.4418 123.27 91.7487 122.515 94.1173 122.515C96.4859 122.515 98.7929 123.27 100.703 124.671L107.453 129.608C108.219 130.189 109.138 130.532 110.097 130.594C111.056 130.655 112.012 130.433 112.845 129.955C113.679 129.476 114.353 128.763 114.783 127.904C115.214 127.045 115.382 126.078 115.266 125.124L114.36 116.827C114.087 114.483 114.569 112.113 115.735 110.062C116.901 108.011 118.691 106.385 120.844 105.421L128.5 102.046C129.368 101.66 130.105 101.032 130.623 100.236C131.141 99.4396 131.416 98.5106 131.416 97.5611C131.416 96.6117 131.141 95.6826 130.623 94.8866C130.105 94.0906 129.368 93.4619 128.5 93.0768L124.344 91.358C123.957 91.2005 123.606 90.967 123.311 90.6714C123.016 90.3758 122.783 90.024 122.626 89.6369C122.469 89.2498 122.392 88.8352 122.398 88.4175C122.404 87.9999 122.494 87.5878 122.662 87.2054C122.83 86.8231 123.073 86.4784 123.377 86.1916C123.681 85.9049 124.039 85.6819 124.43 85.5359C124.821 85.3899 125.238 85.3238 125.655 85.3416C126.073 85.3593 126.482 85.4605 126.86 85.6393L131.016 87.4674C132.998 88.3365 134.684 89.7643 135.869 91.5763C137.053 93.3883 137.683 95.5059 137.683 97.6705C137.683 99.8351 137.053 101.953 135.869 103.765C134.684 105.577 132.998 107.005 131.016 107.874L123.375 111.249C122.422 111.665 121.626 112.374 121.104 113.273C120.581 114.172 120.359 115.214 120.469 116.249L121.375 124.561C121.637 126.712 121.255 128.893 120.275 130.827C119.296 132.76 117.765 134.359 115.875 135.421C114.17 136.386 112.241 136.887 110.281 136.874Z" fill="#2C7FB9"/>
<path d="M94.4376 108.546C94.0252 108.546 93.6169 108.465 93.2361 108.306C92.8553 108.148 92.5096 107.916 92.2188 107.624L78.7657 94.1705C78.4304 93.8918 78.1571 93.5461 77.9634 93.1555C77.7697 92.7649 77.6599 92.3381 77.641 91.9025C77.6221 91.4669 77.6946 91.0322 77.8537 90.6263C78.0129 90.2204 78.2552 89.8523 78.5652 89.5457C78.8751 89.239 79.2458 89.0006 79.6533 88.8458C80.0609 88.691 80.4964 88.6232 80.9317 88.6467C81.3671 88.6702 81.7927 88.7846 82.1812 88.9824C82.5697 89.1803 82.9125 89.4572 83.1876 89.7955L94.4376 101.046L134.188 61.233C134.783 60.6954 135.562 60.4074 136.364 60.4285C137.166 60.4497 137.929 60.7784 138.495 61.3466C139.062 61.9149 139.388 62.6791 139.406 63.4811C139.424 64.2831 139.134 65.0614 138.594 65.6549L96.6407 107.608C96.3531 107.901 96.0105 108.135 95.6325 108.296C95.2545 108.457 94.8484 108.542 94.4376 108.546Z" fill="#2C7FB9"/>
</svg>
